<svg width="69" height="56" viewBox="0 0 69 56" fill="none" xmlns="http://www.w3.org/2000/svg">
<g clip-path="url(#clip0_150_14)">
<path d="M38.7387 16.87L37.4424 15.87C37.2398 15.7043 36.9807 15.626 36.7213 15.6522C36.4619 15.6784 36.2232 15.807 36.0571 16.01L18.1177 36.83L18.3947 37.14L22.8375 33C22.6895 32.9398 22.567 32.8291 22.4913 32.6871C22.4156 32.5451 22.3916 32.3807 22.4233 32.2227C22.4551 32.0646 22.5406 31.9227 22.6651 31.8218C22.7896 31.7208 22.9451 31.6671 23.1047 31.67C23.2486 31.67 23.3887 31.7166 23.5045 31.803C23.6203 31.8894 23.7056 32.011 23.7479 32.15L29.6057 26.66C29.6954 26.587 29.8071 26.5472 29.9223 26.5472C30.0375 26.5472 30.1492 26.587 30.2389 26.66L30.5358 26.88C30.6362 26.9528 30.7599 26.9849 30.8826 26.9701C31.0053 26.9553 31.1181 26.8946 31.1987 26.8L38.8574 18.12C38.9388 18.0339 39.0009 17.931 39.0395 17.8184C39.078 17.7058 39.0921 17.5862 39.0809 17.4676C39.0696 17.349 39.0332 17.2343 38.9742 17.1312C38.9151 17.028 38.8348 16.939 38.7387 16.87V16.87Z" fill="#303030"/>
<path d="M47.169 22.73C43.2432 25.553 38.8453 27.6364 34.1869 28.88C29.5635 30.0683 24.8325 30.7786 20.0669 31C20.1629 31.7102 20.3354 32.4077 20.5814 33.08C23.2728 35.54 43.5376 31.34 47.4956 26.48C48.3366 25.47 47.169 22.73 47.169 22.73ZM23.1046 33C22.9716 33 22.8415 32.9601 22.7308 32.8854C22.6202 32.8107 22.5339 32.7045 22.483 32.5802C22.4321 32.456 22.4187 32.3192 22.4447 32.1873C22.4707 32.0554 22.5348 31.9342 22.6289 31.8391C22.723 31.744 22.8428 31.6793 22.9734 31.653C23.1039 31.6268 23.2392 31.6403 23.3621 31.6917C23.4851 31.7432 23.5902 31.8304 23.6641 31.9422C23.738 32.054 23.7775 32.1855 23.7775 32.32C23.7788 32.4097 23.7623 32.4987 23.729 32.5818C23.6956 32.6649 23.6461 32.7404 23.5834 32.8038C23.5206 32.8672 23.4459 32.9173 23.3637 32.951C23.2815 32.9847 23.1934 33.0013 23.1046 33V33Z" fill="#303030"/>
<path d="M3.95818 21.2899L4.1165 20.5999L6.68917 21.1899C6.90142 21.5861 7.03266 22.0214 7.07508 22.4699C7.12418 22.945 7.09408 23.425 6.98602 23.8899C6.85793 24.5352 6.5645 25.1352 6.13506 25.6299C5.72648 26.097 5.19967 26.4428 4.61124 26.6299C4.00478 26.8189 3.35974 26.8431 2.74111 26.6999C2.12111 26.5646 1.54963 26.2603 1.08866 25.8199C0.634746 25.3969 0.308804 24.8526 0.14864 24.2499C-0.0290388 23.5954 -0.0290388 22.9045 0.14864 22.2499C0.254988 21.76 0.445909 21.2929 0.71265 20.8699C0.965107 20.4853 1.30421 20.1665 1.70214 19.9399L2.05836 20.4899C1.71728 20.7016 1.42451 20.9839 1.19936 21.3183C0.974215 21.6527 0.821817 22.0316 0.752229 22.4299C0.629519 22.9473 0.639738 23.4877 0.781914 23.9999C0.914871 24.4863 1.1786 24.9259 1.54382 25.2699C1.91921 25.6367 2.38888 25.8896 2.89942 25.9999C3.39449 26.1404 3.91828 26.1404 4.41335 25.9999C4.8876 25.8417 5.31355 25.5628 5.65021 25.1899C5.99618 24.7873 6.2346 24.3019 6.34285 23.7799C6.50566 23.1468 6.46405 22.4776 6.22411 21.8699L3.95818 21.2899Z" fill="#303030"/>
<path d="M9.55852 15.0001L7.25301 18.1101L8.2425 19.9001L7.78734 20.5201L4.12622 13.7701L4.5517 13.1801L12.0026 14.8001L11.5375 15.4201L9.55852 15.0001ZM8.90546 14.8401L4.9475 13.9401L6.92648 17.5301L8.90546 14.8401Z" fill="#303030"/>
<path d="M8.90552 8.54998L9.49921 8.09998L13.2692 13.2L16.3762 10.85L16.7522 11.36L13.0614 14.15L8.90552 8.54998Z" fill="#303030"/>
<path d="M15.1392 4.37996L15.8021 4.07996L18.4144 9.85996L21.9469 8.23996L22.2041 8.81996L18.0087 10.75L15.1392 4.37996Z" fill="#303030"/>
<path d="M28.1807 6.68003L28.3291 7.31003L23.5597 8.44003L21.9766 1.62003L26.6074 0.530029L26.7459 1.15003L22.7879 2.08003L23.352 4.50003L26.835 3.67003L26.9834 4.29003L23.4905 5.11003L24.0842 7.64003L28.1807 6.68003Z" fill="#303030"/>
<path d="M34.9786 6.92997L33.3261 4.72997C33.1416 4.74029 32.9566 4.74029 32.772 4.72997L30.9118 4.78997L30.981 7.00997H30.2488L30.0212 0.00996866L32.6533 -3.1339e-05C33.3975 -0.0694894 34.1416 0.132721 34.751 0.569969C35.0078 0.778962 35.2143 1.04418 35.3548 1.3456C35.4954 1.64702 35.5664 1.97678 35.5624 2.30997C35.5913 2.80416 35.463 3.29473 35.1963 3.70997C34.9119 4.10853 34.5102 4.40603 34.0485 4.55997L35.7801 6.89997L34.9786 6.92997ZM34.2859 3.63997C34.4638 3.47531 34.6018 3.27154 34.6893 3.04439C34.7768 2.81725 34.8115 2.57281 34.7906 2.32997C34.7957 2.08584 34.7458 1.84374 34.6446 1.62198C34.5435 1.40022 34.3938 1.20461 34.2068 1.04997C33.7507 0.737448 33.2023 0.592707 32.6533 0.639969L30.7733 0.709969L30.892 4.20997L32.7324 4.14997C33.2937 4.17096 33.8441 3.99026 34.2859 3.63997Z" fill="#303030"/>
<path d="M40.2128 5.07L39.8566 7.46L39.1343 7.35L39.5004 5L37.4521 0L38.224 0.12L39.9754 4.38L42.9438 0.85L43.6365 1L40.2128 5.07Z" fill="#303030"/>
<path d="M49.999 4.65005L50.8599 5.78005L50.4839 6.08005L49.623 4.92005L49.0788 6.23005L48.6632 6.05005L49.2173 4.74005L47.7925 4.93005V4.45005L49.1976 4.29005L48.3268 3.16005L48.7127 2.86005L49.4746 4.00005L50.0089 2.68005L50.4344 2.86005L49.9298 4.20005L51.3546 4.00005V4.49005L49.999 4.65005Z" fill="#303030"/>
<path d="M53.3039 12.71C53.0702 12.346 52.9245 11.9315 52.8784 11.5L53.4622 11.24C53.506 11.6364 53.6343 12.0185 53.8382 12.36C54.0593 12.743 54.3476 13.0819 54.6892 13.36C55.0419 13.7013 55.4919 13.9217 55.9755 13.99C56.1503 14.0064 56.3263 13.9794 56.4884 13.9115C56.6505 13.8435 56.7937 13.7366 56.9056 13.6C56.9877 13.5085 57.0503 13.4009 57.0894 13.284C57.1286 13.167 57.1435 13.0431 57.1332 12.92C57.1005 12.6763 57.0197 12.4417 56.8958 12.23C56.7098 11.9231 56.5083 11.626 56.2922 11.34C56.0287 10.9912 55.7906 10.6236 55.5797 10.24C55.4185 9.95296 55.3301 9.63003 55.3225 9.30004C55.3218 8.92946 55.4596 8.5723 55.7084 8.30004C55.924 8.03617 56.2085 7.83869 56.5296 7.73004C56.8884 7.62531 57.2692 7.62531 57.628 7.73004C58.0902 7.88282 58.5175 8.12763 58.8846 8.45004C59.1893 8.70611 59.4588 9.00205 59.6861 9.33004C59.8963 9.6342 60.0536 9.97239 60.1512 10.33L59.5872 10.63C59.4888 10.2967 59.3421 9.97991 59.1518 9.69004C58.9622 9.43118 58.7393 9.19913 58.4888 9.00004C58.1414 8.66028 57.6927 8.44587 57.2124 8.39004C57.0359 8.37512 56.8585 8.40478 56.6961 8.47635C56.5337 8.54792 56.3915 8.65915 56.2823 8.80004C56.1981 8.89013 56.1342 8.99753 56.0949 9.11489C56.0556 9.23226 56.0419 9.35681 56.0547 9.48004C56.0778 9.73221 56.1592 9.97538 56.2922 10.19C56.4307 10.42 56.6286 10.72 56.8958 11.08C57.1606 11.4208 57.3988 11.7819 57.6082 12.16C57.7728 12.4462 57.8646 12.7692 57.8753 13.1C57.876 13.4706 57.7382 13.8278 57.4894 14.1C57.273 14.3675 56.9842 14.5656 56.6583 14.67C56.3001 14.7793 55.9181 14.7793 55.5599 14.67C55.0945 14.5177 54.6639 14.2729 54.2934 13.95C53.894 13.5987 53.559 13.179 53.3039 12.71Z" fill="#303030"/>
<path d="M63.258 14.17L61.8628 12.17L62.3774 11.8L65.5932 16.44L65.0787 16.81L63.6835 14.81L58.5184 18.46L58.1028 17.85L63.258 14.17Z" fill="#303030"/>
<path d="M61.0416 22.39C61.2183 21.7856 61.5615 21.2445 62.0311 20.83C62.4906 20.4141 63.0503 20.1279 63.6539 20C64.2692 19.8572 64.911 19.8814 65.5141 20.07C66.0963 20.2645 66.6181 20.6092 67.0281 21.07C67.4543 21.5656 67.7443 22.1656 67.8691 22.81C68.033 23.4426 68.033 24.1073 67.8691 24.74C67.6876 25.3421 67.3452 25.8819 66.8796 26.3C66.4075 26.727 65.834 27.0233 65.215 27.16C64.596 27.2967 63.9525 27.2691 63.3471 27.08C62.7605 26.8949 62.2364 26.5487 61.8332 26.08C61.4089 25.587 61.119 24.9907 60.9922 24.35C60.841 23.7033 60.8581 23.028 61.0416 22.39ZM62.3379 25.57C62.6682 25.9502 63.0963 26.2306 63.5747 26.38C64.0678 26.5245 64.5889 26.5417 65.0903 26.4298C65.5916 26.318 66.0572 26.0808 66.4443 25.74C66.8095 25.4004 67.0792 24.9691 67.226 24.49C67.3639 23.9841 67.3774 23.4517 67.2654 22.9393C67.1533 22.4269 66.9189 21.95 66.5828 21.55C66.2379 21.1679 65.7967 20.8879 65.3063 20.74C64.8071 20.606 64.2818 20.606 63.7825 20.74C63.2787 20.8377 62.8124 21.0768 62.4368 21.43C62.0683 21.7708 61.7981 22.2062 61.6551 22.69C61.5208 23.1977 61.5208 23.7322 61.6551 24.24C61.7635 24.7361 61.9989 25.1947 62.3379 25.57Z" fill="#303030"/>
<path d="M60.2896 34L62.8523 33C62.8523 32.82 62.9117 32.64 62.9612 32.45L63.446 30.64L61.3483 30.09L61.5363 29.38L68.2253 31.19L67.5524 33.72C67.4009 34.4582 66.9939 35.1177 66.4046 35.58C66.1338 35.7701 65.8232 35.8942 65.4971 35.9428C65.1709 35.9914 64.8381 35.963 64.5246 35.86C64.0471 35.7553 63.6192 35.4892 63.3116 35.1056C63.0039 34.722 62.835 34.2438 62.8326 33.75L60.1016 34.75L60.2896 34ZM63.6044 34.28C63.7203 34.4925 63.8775 34.6792 64.0666 34.8287C64.2557 34.9782 64.4728 35.0876 64.7048 35.1502C64.9368 35.2128 65.1789 35.2273 65.4166 35.1929C65.6543 35.1585 65.8827 35.0759 66.088 34.95C66.5247 34.5955 66.8228 34.0958 66.929 33.54L67.404 31.74L64.0496 30.83L63.5747 32.63C63.3921 33.1664 63.4026 33.7507 63.6044 34.28Z" fill="#303030"/>
<path d="M56.7373 40.44L56.2327 40.05L59.2011 36.1L64.7225 40.33L61.853 44.16L61.3483 43.77L63.7726 40.54L61.7936 39.03L59.6266 41.92L59.1319 41.54L61.3483 38.65L59.3001 37.08L56.7373 40.44Z" fill="#303030"/>
<path d="M54.4221 48.41L53.0071 48.49V48.01L54.4221 48L53.6601 46.81L54.046 46.56L54.7981 47.76L55.4115 46.42L55.837 46.65L55.1642 47.91L56.5791 47.83V48.32H55.1444L55.9063 49.51L55.5204 49.76L54.7684 48.56L54.1153 49.86L53.6997 49.62L54.4221 48.41Z" fill="#303030"/>
<path d="M41.5585 47.61L42.7558 48.28C42.9565 47.8904 43.2367 47.5481 43.5778 47.2757C43.9189 47.0034 44.3132 46.8072 44.7348 46.7C45.1281 46.5761 45.5417 46.5319 45.9519 46.57C46.3078 46.5976 46.6497 46.722 46.9414 46.93C47.205 47.1309 47.399 47.4109 47.4955 47.73C47.6147 48.1248 47.5937 48.5493 47.4361 48.93C47.1878 49.4474 46.8531 49.9176 46.4466 50.32C46.7728 50.4972 47.0754 50.7156 47.3471 50.97C47.5336 51.1649 47.6726 51.4012 47.7527 51.66C47.8035 51.8618 47.8066 52.0728 47.7619 52.276C47.7172 52.4792 47.626 52.669 47.4955 52.83C47.2313 53.2147 46.8372 53.4885 46.3873 53.6C45.9921 53.7523 45.5554 53.7523 45.1603 53.6C44.9846 53.5237 44.8288 53.4072 44.7052 53.2597C44.5816 53.1122 44.4935 52.9377 44.4478 52.75C44.3441 52.4199 44.3689 52.0623 44.5171 51.75C44.7442 51.2954 45.0415 50.8802 45.3978 50.52L43.0131 49.18C42.9221 49.651 42.9021 50.1331 42.9537 50.61H42.3501C42.3095 50.0227 42.3766 49.4328 42.548 48.87L41.3013 48.17L41.5585 47.61ZM43.2803 48.61L45.9024 50.08C46.246 49.7484 46.5306 49.3593 46.7435 48.93C46.8522 48.6401 46.8522 48.32 46.7435 48.03C46.6986 47.8568 46.6118 47.6975 46.4909 47.5666C46.37 47.4357 46.2188 47.3372 46.0508 47.28C45.64 47.1398 45.1951 47.1398 44.7843 47.28C44.4486 47.3695 44.1364 47.5323 43.8697 47.7569C43.603 47.9815 43.3883 48.2625 43.2407 48.58L43.2803 48.61ZM47.0007 52.61C47.0654 52.4995 47.1059 52.3763 47.1196 52.2487C47.1332 52.1211 47.1197 51.9919 47.0799 51.87C47.0193 51.6726 46.9104 51.4937 46.7633 51.35C46.5114 51.1353 46.2358 50.9508 45.942 50.8C45.642 51.0998 45.3795 51.4357 45.1603 51.8C45.0407 52.0272 45.0123 52.2923 45.0811 52.54C45.1125 52.6545 45.1675 52.7609 45.2426 52.8522C45.3176 52.9436 45.411 53.0178 45.5165 53.07C45.7684 53.166 46.0463 53.166 46.2982 53.07C46.5672 52.9975 46.8021 52.831 46.9612 52.6L47.0007 52.61Z" fill="#303030"/>
<path d="M29.4968 55.3199L29.6354 48.3199H30.3379L30.229 53.9199L33.0392 49.2599H33.3855L36.0176 53.9999L36.1165 48.4299H36.8191L36.6904 55.4299H36.0868L33.1777 50.1999L30.1004 55.3299L29.4968 55.3199Z" fill="#303030"/>
<path d="M26.0533 48C26.5057 48.4358 26.8295 48.9901 26.9885 49.601C27.1475 50.212 27.1355 50.8556 26.9537 51.46C26.7911 52.0789 26.4664 52.642 26.0137 53.09C25.5737 53.527 25.0221 53.8317 24.4206 53.97C23.786 54.1147 23.1255 54.094 22.501 53.91C21.8786 53.7564 21.306 53.4429 20.8386 53C20.3929 52.5697 20.0743 52.0227 19.9184 51.42C19.7662 50.7969 19.7775 50.1446 19.951 49.5273C20.1245 48.91 20.4543 48.3491 20.9079 47.9C21.34 47.4641 21.8799 47.1533 22.4713 47C23.1026 46.8557 23.7598 46.8763 24.381 47.06C25.0098 47.221 25.5862 47.545 26.0533 48ZM22.6791 47.65C22.1951 47.7639 21.7526 48.0134 21.4026 48.37C21.0382 48.7369 20.7784 49.1963 20.6506 49.7C20.5126 50.2004 20.5126 50.7295 20.6506 51.23C20.7673 51.7169 21.0177 52.1606 21.373 52.51C21.7455 52.8782 22.2055 53.1433 22.7088 53.28C23.212 53.4095 23.7393 53.4095 24.2425 53.28C24.7269 53.1596 25.1709 52.9111 25.5288 52.56C25.8914 52.1916 26.1509 51.7327 26.2808 51.23C26.4192 50.7262 26.4192 50.1938 26.2808 49.69C26.1542 49.2049 25.9014 48.7629 25.5486 48.41C25.1741 48.0413 24.7099 47.7791 24.2029 47.65C23.7043 47.5107 23.1777 47.5107 22.6791 47.65Z" fill="#303030"/>
<path d="M15.1887 43L15.4558 45.75C15.6255 45.8233 15.7908 45.9068 15.9506 46L17.5634 46.94L18.6519 45L19.295 45.37L15.8318 51.4L13.5758 50.09C12.909 49.7515 12.3829 49.1844 12.0916 48.49C11.984 48.1772 11.9477 47.8439 11.9854 47.5149C12.0231 47.1859 12.1338 46.8698 12.3092 46.59C12.5392 46.1518 12.9038 45.8008 13.3482 45.59C13.7995 45.4011 14.2986 45.3626 14.7731 45.48L14.4861 42.54L15.1887 43ZM14.0606 46.16C13.8282 46.219 13.61 46.3247 13.419 46.4708C13.2279 46.617 13.068 46.8006 12.9489 47.0107C12.8297 47.2207 12.7537 47.4529 12.7254 47.6934C12.6971 47.9338 12.7171 48.1776 12.7842 48.41C13.0161 48.9276 13.4182 49.3481 13.9221 49.6L15.5152 50.53L17.2468 47.53L15.6537 46.6C15.1958 46.2533 14.6321 46.0799 14.0606 46.11V46.16Z" fill="#303030"/>
<path d="M9.33095 38.31L9.77622 37.86L13.19 41.41L8.24251 46.29L4.94751 42.85L5.40268 42.4L8.20293 45.31L9.89496 43.58L7.44103 41L7.91598 40.54L10.4194 43.14L12.2598 41.33L9.33095 38.31Z" fill="#303030"/>
<path d="M1.97897 34.38L2.21644 33L2.6815 33.07L2.41434 34.49L3.73036 34L3.88868 34.44L2.55287 34.9L3.65121 35.84L3.33457 36.2L2.27581 35.2L2.02844 36.62L1.55349 36.53L1.83054 35.11L0.504625 35.59L0.356201 35.2L1.68212 34.73L0.583784 33.8L0.910316 33.44L1.97897 34.38Z" fill="#303030"/>
</g>
<defs>
<clipPath id="clip0_150_14">
<rect width="68.2056" height="55.46" fill="white"/>
</clipPath>
</defs>
</svg>
